<?xml version="1.0" encoding="iso-8859-1"?>
<!-- Generator: Adobe Illustrator 19.0.0, SVG Export Plug-In . SVG Version: 6.00 Build 0)  -->
<svg version="1.1" id="Capa_1" xmlns="http://www.w3.org/2000/svg" xmlns:xlink="http://www.w3.org/1999/xlink" x="0px" y="0px"
	 viewBox="0 0 477.867 477.867" style="enable-background:new 0 0 477.867 477.867;" xml:space="preserve">
<g>
	<g>
		<path d="M426.667,85.333h-34.133V51.2c0-28.277-22.923-51.2-51.2-51.2H51.2C22.923,0,0,22.923,0,51.2v290.133
			c0,28.277,22.923,51.2,51.2,51.2h34.133v34.133c0,28.277,22.923,51.2,51.2,51.2h290.133c28.277,0,51.2-22.923,51.2-51.2V136.533
			C477.867,108.256,454.944,85.333,426.667,85.333z M51.2,358.4c-9.426,0-17.067-7.641-17.067-17.067V51.2
			c0-9.426,7.641-17.067,17.067-17.067h290.133c9.426,0,17.067,7.641,17.067,17.067v290.133c0,9.426-7.641,17.067-17.067,17.067
			H51.2z M443.733,426.667c0,9.426-7.641,17.067-17.067,17.067H136.533c-9.426,0-17.067-7.641-17.067-17.067v-34.133h221.867
			c28.277,0,51.2-22.923,51.2-51.2V119.467h34.133c9.426,0,17.067,7.641,17.067,17.067V426.667z"/>
	</g>
</g>
<g>
</g>
<g>
</g>
<g>
</g>
<g>
</g>
<g>
</g>
<g>
</g>
<g>
</g>
<g>
</g>
<g>
</g>
<g>
</g>
<g>
</g>
<g>
</g>
<g>
</g>
<g>
</g>
<g>
</g>
</svg>
