<?xml version="1.0" standalone="no"?>
<!DOCTYPE svg PUBLIC "-//W3C//DTD SVG 20010904//EN"
 "http://www.w3.org/TR/2001/REC-SVG-20010904/DTD/svg10.dtd">
<svg version="1.0" xmlns="http://www.w3.org/2000/svg"
 width="16.000000pt" height="16.000000pt" viewBox="0 0 16.000000 16.000000"
 preserveAspectRatio="xMidYMid meet">

<g transform="translate(0.000000,16.000000) scale(0.100000,-0.100000)"
fill="#000000" stroke="none">
<path d="M37 118 l-37 -40 41 -41 40 -41 41 42 42 41 -41 40 c-22 23 -42 40
-44 40 -2 -1 -21 -20 -42 -41z m64 -41 c6 -24 5 -27 -16 -27 -29 0 -42 18 -21
26 9 3 16 10 16 16 0 5 -4 6 -10 3 -5 -3 -10 -1 -10 5 0 23 34 4 41 -23z"/>
</g>
</svg>
