
<svg id="Capa_1" enable-background="new 0 0 512 512" viewBox="0 0 512 512" xmlns="http://www.w3.org/2000/svg"><g><path d="m355.438 344.642h-191.544c-17.192 0-31.13-13.937-31.13-31.13v-282.382c0-17.192 13.937-31.13 31.13-31.13h191.544c17.192 0 31.13 13.937 31.13 31.13v282.383c-.001 17.192-13.938 31.129-31.13 31.129z" fill="#d4d4ff"/><path d="m386.567 313.513v-220.862c-26.368-20.489-64.418-18.634-88.647 5.595l-11.836 11.836c-9.193-26.161-34.147-44.967-63.411-44.967h-89.91v248.397c0 17.192 13.937 31.129 31.13 31.129h191.544c17.193.001 31.13-13.936 31.13-31.128z" fill="#9ea2e3"/><path d="m268.225 139.216c42.958 0 65.041-32.219 79.863-60.6v-32.915c0-3.989-3.233-7.222-7.222-7.222h-162.401c-3.989 0-7.222 3.233-7.222 7.222v19.415c.005.007 54.026 74.1 96.982 74.1z" fill="#6fce91"/><path d="m348.089 298.941v-220.325c-18.066-.712-36.362 5.824-50.168 19.63l-11.836 11.836c-9.193-26.161-34.147-44.967-63.411-44.967h-51.431v233.826c0 3.989 3.233 7.222 7.222 7.222h162.402c3.988.001 7.222-3.233 7.222-7.222z" fill="#4dc176"/><path d="m259.184 502.882-135.442-135.442c-12.157-12.157-12.157-31.867 0-44.024l199.675-199.675c12.157-12.157 31.867-12.157 44.024 0l135.442 135.442c12.157 12.157 12.157 31.867 0 44.024l-199.676 199.675c-12.156 12.157-31.867 12.157-44.023 0z" fill="#efedff"/><path d="m289.859 414.684v-257.385l-166.117 166.118c-12.157 12.157-12.157 31.867 0 44.024l112.948 112.948c30.339-6.467 53.169-33.465 53.169-65.705z" fill="#d4d4ff"/><path d="m377.202 293.208c-8.78-8.251-19.989-12.43-31.234-12.552-.122-11.245-4.301-22.454-12.552-31.234-11.439-12.172-28.172-16.792-43.557-13.556l-17.919 73.493 17.919 68.965c35.807 4.662 71.225.289 89.897-20.084 17.001-18.55 15.782-47.8-2.554-65.032z" fill="#e26e7e"/><path d="m289.859 235.867c-7.792 1.639-15.239 5.286-21.475 11.001-25.466 23.34-25.949 72.842-15.011 116.565 1.212 4.843 4.975 8.606 9.818 9.818 8.744 2.187 17.718 3.908 26.668 5.073z" fill="#d9495d"/><path d="m222.673 445.814h-191.543c-17.192 0-31.13-13.937-31.13-31.13v-282.383c0-17.192 13.937-31.13 31.13-31.13h191.544c17.192 0 31.13 13.937 31.13 31.13v282.383c-.001 17.192-13.938 31.13-31.131 31.13z" fill="#efedff"/><g><path d="m154.277 360.844c-6.11-14.378-8.503-31.85-8.503-51.485h-37.745c0 19.635-2.393 37.106-8.503 51.485-2.787 6.559 2.118 13.82 9.244 13.82h36.263c7.126 0 12.031-7.262 9.244-13.82z" fill="#605ac2"/><path d="m45.633 283.396c-.247 25.652 20.643 47.234 46.295 46.919 10.597-.13 20.323-3.868 28.013-10.039 4.037-3.24 9.885-3.24 13.922 0 7.69 6.171 17.416 9.909 28.013 10.039 25.651.315 46.541-21.267 46.294-46.919-.522-54.262-36.603-76.112-62.393-103.022-10.29-10.737-27.46-10.737-37.751 0-25.79 26.91-61.87 48.76-62.393 103.022z" fill="#807bcf"/></g></g></svg>