<svg id="Layer_2" enable-background="new 0 0 512 512" height="512" viewBox="0 0 512 512" width="512" xmlns="http://www.w3.org/2000/svg"><g><g><path d="m314 56h188v400h-188z" fill="#466089"/></g><g><circle cx="408" cy="256" fill="#ffb0aa" r="20"/></g><g><path d="m338 106h140v20h-140z" fill="#6e83b7"/></g><g><path d="m400 286h16v30h-16z" fill="#d3d3d3"/></g><g><path d="m400 334h16v80h-16z" fill="#d3d3d3"/></g><g><path d="m338 160h140v20h-140z" fill="#6e83b7"/></g><g><g><path d="m10 358v-250c0-11.046 8.954-20 20-20h340c11.046 0 20 8.954 20 20v250c0 11.046-8.954 20-20 20h-340c-11.046 0-20-8.954-20-20z" fill="#80d6fb"/></g><g><path d="m10 358v-28h380v28c0 11.046-8.954 20-20 20h-340c-11.046 0-20-8.954-20-20z" fill="#6e83b7"/></g><g><path d="m150 378h100v50h-100z" fill="#466089"/></g><g><path d="m110 428h180v28h-180z" fill="#6e83b7"/></g></g></g></svg>