<svg viewBox="-27 0 512 512.00001" xmlns="http://www.w3.org/2000/svg"><path d="m351.996094 161v-103c0-26.511719 21.492187-48 48-48 26.511718 0 48 21.488281 48 48v83c0 11.046875-8.953125 20-20 20zm0 0" fill="#feda9b"/><path d="m399.996094 10h-341.996094c-26.511719 0-48 21.488281-48 48v369.996094c0 11.046875 8.953125 20 20 20h321.996094v-389.996094c0-26.511719 21.492187-48 48-48" fill="#fff"/><path d="m266 501.996094-14.714844-35.308594c-5.140625-12.335938-7.785156-25.574219-7.785156-38.941406v-77.535156c0-11.714844 9.496094-21.210938 21.210938-21.210938 9.128906 0 17.234374 5.839844 20.121093 14.503906l15.074219 45.214844c3.636719 10.914062 13.851562 18.277344 25.359375 18.277344 14.765625 0 26.730469-11.964844 26.730469-26.730469v-195.5625l30.429687 30.371094c25.546875 25.503906 39.90625 60.121093 39.90625 96.21875v106.300781c0 29.195312-6.492187 58.023438-19 84.402344" fill="#ffd0bb"/><g fill="#36d28f"><path d="m117.667969 128h-44c-5.523438 0-10-4.476562-10-10v-44c0-5.523438 4.476562-10 10-10h44c5.519531 0 10 4.476562 10 10v44c0 5.523438-4.480469 10-10 10zm0 0"/><path d="m117.667969 248h-44c-5.523438 0-10-4.476562-10-10v-44c0-5.523438 4.476562-10 10-10h44c5.519531 0 10 4.476562 10 10v44c0 5.523438-4.480469 10-10 10zm0 0"/><path d="m117.667969 367.996094h-44c-5.523438 0-10-4.476563-10-10v-43.996094c0-5.523438 4.476562-10 10-10h44c5.519531 0 10 4.476562 10 10v43.996094c0 5.523437-4.480469 10-10 10zm0 0"/></g><path d="m399.996094 0h-341.996094c-31.980469 0-58 26.019531-58 58v369.996094c0 16.542968 13.457031 30 30 30h131.332031c5.523438 0 10-4.476563 10-10 0-5.523438-4.476562-10-10-10h-131.332031c-5.515625 0-10-4.484375-10-10v-369.996094c0-20.953125 17.046875-38 38-38h298.234375c-8.855469 10.1875-14.238281 23.472656-14.238281 38v322.265625c0 9.226563-7.503906 16.730469-16.730469 16.730469-7.210937 0-13.589844-4.597656-15.875-11.4375l-15.070313-45.21875c-4.253906-12.765625-16.15625-21.339844-29.609374-21.339844-17.210938 0-31.210938 14-31.210938 31.207031v7.789063h-51.832031c-5.523438 0-10 4.480468-10 10 0 5.523437 4.476562 10 10 10h51.832031v49.75c0 14.765625 2.878906 29.164062 8.558594 42.789062l14.710937 35.308594c1.601563 3.839844 5.316407 6.15625 9.234375 6.15625 1.28125 0 2.585938-.246094 3.839844-.769531 5.101562-2.125 7.511719-7.980469 5.386719-13.078125l-14.710938-35.308594c-4.65625-11.175781-7.019531-22.984375-7.019531-35.09375v-77.539062c0-6.183594 5.027344-11.210938 11.210938-11.210938 4.832031 0 9.109374 3.078125 10.636718 7.664062l15.070313 45.21875c5.007812 15.019532 19.011719 25.113282 34.847656 25.113282 20.253906 0 36.730469-16.476563 36.730469-36.730469v-171.449219l13.363281 13.335938c23.84375 23.796875 36.972656 55.457031 36.972656 89.140625v106.300781c0 27.535156-6.238281 55.238281-18.035156 80.117188-2.367187 4.988281-.238281 10.953124 4.75 13.320312s10.953125.242188 13.320313-4.75c13.058593-27.539062 19.964843-58.207031 19.964843-88.6875v-106.300781c0-39.035157-15.214843-75.71875-42.84375-103.296875l-27.492187-27.441406v-9.554688h66c16.542968 0 30-13.457031 30-30v-83c0-31.980469-26.015625-58-58-58zm38 141c0 5.511719-4.484375 10-10 10h-66v-93c0-20.953125 17.046875-38 38-38s38 17.046875 38 38zm0 0"/><path d="m205 437.996094c-2.632812 0-5.210938 1.070312-7.070312 2.929687-1.859376 1.863281-2.929688 4.441407-2.929688 7.070313 0 2.632812 1.070312 5.210937 2.929688 7.070312 1.859374 1.859375 4.4375 2.929688 7.070312 2.929688 2.628906 0 5.207031-1.070313 7.070312-2.929688 1.859376-1.859375 2.929688-4.4375 2.929688-7.070312 0-2.628906-1.070312-5.207032-2.929688-7.070313-1.863281-1.859375-4.441406-2.929687-7.070312-2.929687zm0 0"/><path d="m137.667969 74c0-11.027344-8.972657-20-20-20h-44c-11.03125 0-20 8.972656-20 20v44c0 11.027344 8.96875 20 20 20h44c11.027343 0 20-8.972656 20-20zm-20 44h-44v-44h44l.011719 44s-.003907 0-.011719 0zm0 0"/><path d="m137.667969 194c0-11.027344-8.972657-20-20-20h-44c-11.03125 0-20 8.972656-20 20v44c0 11.027344 8.96875 20 20 20h44c11.027343 0 20-8.972656 20-20zm-20 44h-44v-44h44l.011719 44s-.003907 0-.011719 0zm0 0"/><path d="m117.667969 294h-44c-11.03125 0-20 8.96875-20 20v43.996094c0 11.03125 8.96875 20 20 20h44c11.027343 0 20-8.96875 20-20v-43.996094c0-11.03125-8.972657-20-20-20zm0 63.996094h-44v-43.996094h44l.011719 43.996094s-.003907 0-.011719 0zm0 0"/><path d="m296.332031 138c5.523438 0 10-4.476562 10-10s-4.476562-10-10-10h-68.9375c-5.523437 0-10 4.476562-10 10s4.476563 10 10 10zm0 0"/><path d="m181.667969 138c2.632812 0 5.210937-1.070312 7.070312-2.929688 1.859375-1.859374 2.929688-4.441406 2.929688-7.070312s-1.070313-5.210938-2.929688-7.070312c-1.859375-1.859376-4.4375-2.929688-7.070312-2.929688-2.640625 0-5.210938 1.070312-7.070313 2.929688-1.867187 1.859374-2.929687 4.441406-2.929687 7.070312s1.0625 5.210938 2.929687 7.070312c1.859375 1.859376 4.429688 2.929688 7.070313 2.929688zm0 0"/><path d="m181.664062 258h114.667969c5.523438 0 10-4.476562 10-10s-4.476562-10-10-10h-114.667969c-5.519531 0-10 4.476562-10 10s4.480469 10 10 10zm0 0"/></svg>