<svg height="512pt" viewBox="0 0 512 512" width="512pt" xmlns="http://www.w3.org/2000/svg" xmlns:xlink="http://www.w3.org/1999/xlink"><linearGradient id="a" gradientUnits="userSpaceOnUse" x1="0" x2="512" y1="256" y2="256"><stop offset="0" stop-color="#00f38d"/><stop offset="1" stop-color="#009eff"/></linearGradient><path d="m512 256c0 141.386719-114.613281 256-256 256s-256-114.613281-256-256 114.613281-256 256-256 256 114.613281 256 256zm0 0" fill="url(#a)"/><g fill="#fff"><path d="m149.113281 122.925781c0-6.027343 4.902344-10.933593 10.933594-10.933593h111.351563v44.070312c0 22.570312 18.363281 40.933594 40.9375 40.933594h43.996093v75.046875h30v-96.238281l-93.335937-93.8125h-132.949219c-22.570313 0-40.933594 18.363281-40.933594 40.933593v149.117188h30zm152.285157 33.136719v-23.089844l33.851562 34.023438h-22.914062c-6.03125 0-10.9375-4.902344-10.9375-10.933594zm0 0"/><path d="m363.625 341.976562v30h24.550781c-5.296875 9.519532-15.476562 15.988282-27.144531 16.03125-17.121094-.0625-31.03125-13.960937-31.03125-31.03125 0-17.113281 13.902344-31.03125 30.996094-31.03125 4.390625 0 8.628906.898438 12.597656 2.667969l12.226562-27.398437c-7.839843-3.496094-16.191406-5.269532-24.824218-5.269532-33.632813 0-60.996094 27.378907-60.996094 61.03125 0 33.574219 27.304688 60.902344 60.914062 61.03125h.238282c33.605468-.128906 60.910156-27.457031 60.910156-61.03125v-15zm0 0"/><path d="m149.996094 341.976562h-22.042969c-4.421875 0-8.015625-3.597656-8.015625-8.015624 0-4.421876 3.59375-8.019532 8.015625-8.019532h44.410156v-30h-44.410156c-20.960937 0-38.015625 17.054688-38.015625 38.019532 0 20.960937 17.054688 38.015624 38.015625 38.015624h22.042969c4.421875 0 8.015625 3.597657 8.015625 8.015626 0 4.421874-3.59375 8.015624-8.015625 8.015624h-58.027344v30h58.027344c20.960937 0 38.015625-17.054687 38.015625-38.015624 0-20.960938-17.054688-38.015626-38.015625-38.015626zm0 0"/><path d="m244.175781 365.371094-23.589843-67.394532h-27.476563l41.300781 117.996094h19.738282l40.710937-117.996094h-27.433594zm0 0"/></g></svg>