<svg id="Layer_1" height="512" viewBox="0 0 512 512" width="512" xmlns="http://www.w3.org/2000/svg" data-name="Layer 1"><path d="m467.98 264.97-.19.02-14.42 1.45c-.54.06-1.07.09-1.61.12l-3.98.18a19.449 19.449 0 0 0 -16.91 11.61l-1.01 2.32a30.133 30.133 0 0 1 -27.59 18.04h-16.94a16.212 16.212 0 0 1 -16.13-14.62l-.68-6.78a19.316 19.316 0 0 0 -8.74-14.3 18.082 18.082 0 0 1 -8.26-15.18v-6.8a21.651 21.651 0 0 1 7.31-16.22l28.94-25.59a20.117 20.117 0 0 0 5.93-20.93 20.721 20.721 0 0 0 -17.29-14.57l-2.92-.36a22.6 22.6 0 0 1 -14.27-7.56 16.474 16.474 0 0 1 -1.9-18.99l19.03-32.62.02-.02c-36.07-23.01-80.18-38.3-122.52-38.3-5.57 0-11.75.35-17.82.88v.02l27.19 39.22a30.082 30.082 0 0 1 -.9 35.48l-7.11 9.25a22.278 22.278 0 0 1 -20.47 8.5l-8.07-1.03a23.287 23.287 0 0 0 -23.03 11.31 22.493 22.493 0 0 1 -22.24 10.93l-18.64-2.37a24.4 24.4 0 0 0 -23.28 10.53 20.918 20.918 0 0 0 -.35 22.9l12.32 19.46a18.985 18.985 0 0 0 25.03 6.59l12.68-6.8c9.06-4.86 23.5-4.11 32.32 1.18h.01l58.62 38.41 6.77 9.28c.73 1.02 1.51 2.02 2.33 2.98l15.4 18.14a13.842 13.842 0 0 1 -2.11 19.92l-23.35 17.94a31.818 31.818 0 0 0 -10.99 15.82l-7.77 25.26a21.87 21.87 0 0 1 -4.07 7.51l-7.57 9.11a38.5 38.5 0 0 0 -8.67 20.63 17.9 17.9 0 0 1 -10.9 14.7 11.926 11.926 0 0 1 -16.41-9.06l-7.13-42.82a27.018 27.018 0 0 0 -5.18-11.99l-26.12-34.28a36.4 36.4 0 0 1 -6.12-12.34l-8.62-31.13a26.673 26.673 0 0 0 -18.69-18.63l-1.87-.51a30.072 30.072 0 0 1 -12.68-7.11l-16.08-15.15a42.34 42.34 0 0 1 -7.59-9.58 29.817 29.817 0 0 0 -31.54-14.29l-26.43 8.6-.04-.01a214.276 214.276 0 0 0 -5.68 47.61c0 118.78 96.19 215.07 214.85 215.07s214.86-96.29 214.86-215.07c0-4.91-.26-10.3-.73-15.96z" fill="#7ce5e9"/><path d="m453.54 194.06-.01-.01-35.56-56.22-.01-.01a228.749 228.749 0 0 0 -41.59-33.65l-.02.02-19.03 32.62a16.474 16.474 0 0 0 1.9 18.99 22.6 22.6 0 0 0 14.27 7.56l2.92.36a20.721 20.721 0 0 1 17.29 14.57 20.117 20.117 0 0 1 -5.93 20.93l-28.94 25.59a21.651 21.651 0 0 0 -7.31 16.22v6.8a18.082 18.082 0 0 0 8.26 15.18 19.316 19.316 0 0 1 8.74 14.3l.68 6.78a16.212 16.212 0 0 0 16.13 14.62h16.94a30.133 30.133 0 0 0 27.59-18.04l1.01-2.32a19.449 19.449 0 0 1 16.91-11.61l3.98-.18c.54-.03 1.07-.06 1.61-.12l14.42-1.45.19-.02c-1.99-23.83-7.82-52.53-14.44-70.91z" fill="#b1e862"/><path d="m304.61 300.73-15.4-18.14c-.82-.96-1.6-1.96-2.33-2.98l-6.77-9.28-58.62-38.41h-.01c-8.82-5.29-23.26-6.04-32.32-1.18l-12.68 6.8a18.985 18.985 0 0 1 -25.03-6.59l-12.32-19.46a20.918 20.918 0 0 1 .35-22.9 24.4 24.4 0 0 1 23.28-10.53l18.64 2.37a22.493 22.493 0 0 0 22.24-10.93 23.287 23.287 0 0 1 23.03-11.31l8.07 1.03a22.278 22.278 0 0 0 20.47-8.5l7.11-9.25a30.082 30.082 0 0 0 .9-35.48l-27.19-39.22v-.02c-5.06.45-10.04 1.03-14.51 1.66l-.12-.04-60.96 18.3c-13.12 6.49-30.18 17.93-41.6 26.85l-51.72 59.93-.07.05a240.227 240.227 0 0 0 -22.37 59.82l.04.01 26.43-8.6a29.817 29.817 0 0 1 31.54 14.29 42.34 42.34 0 0 0 7.59 9.58l16.08 15.15a30.072 30.072 0 0 0 12.68 7.11l1.87.51a26.673 26.673 0 0 1 18.69 18.63l8.62 31.13a36.4 36.4 0 0 0 6.12 12.34l26.12 34.28a27.018 27.018 0 0 1 5.18 11.99l7.13 42.82a11.926 11.926 0 0 0 16.41 9.06 17.9 17.9 0 0 0 10.9-14.7 38.5 38.5 0 0 1 8.67-20.63l7.57-9.11a21.87 21.87 0 0 0 4.07-7.51l7.77-25.26a31.818 31.818 0 0 1 10.99-15.82l23.35-17.94a13.842 13.842 0 0 0 2.11-19.92z" fill="#b1e862"/><path d="m69 280.93a214.276 214.276 0 0 1 5.68-47.61q1.059-4.6 2.3-9.148h-.07a29.738 29.738 0 0 0 -5.76.56l-26.43 8.6-.04-.01a214.276 214.276 0 0 0 -5.68 47.608c0 118.78 96.19 215.07 214.85 215.07 5.044 0 10.043-.188 15-.53-111.66-7.71-199.85-100.809-199.85-214.54z" fill="#64ccc9"/><path d="m71.15 224.73a29.738 29.738 0 0 1 5.76-.56h.07a237.837 237.837 0 0 1 20.07-50.67l.07-.05 51.72-59.93c11.42-8.92 28.48-20.36 41.6-26.85l49.16-14.756-3.57-5.144v-.02c-5.06.45-10.04 1.03-14.51 1.66l-.12-.04-60.96 18.3c-13.12 6.49-30.18 17.93-41.6 26.85l-51.72 59.93-.07.05a240.227 240.227 0 0 0 -22.37 59.82l.04.01z" fill="#9ac146"/><path d="m160.44 86.67-5.44-7.28a40.428 40.428 0 0 1 -8.12-26.44c1.27-19.59 16.87-36.95 38.36-36.95s37.09 17.36 38.36 36.95a37.952 37.952 0 0 1 -2.2 15.42 41.64 41.64 0 0 1 -5.92 11.02l-30.24 40.45z" fill="#d4e1f4"/><path d="m126.26 134.37a39.821 39.821 0 0 1 -8.11 26.43l-30.25 40.46-20.78-27.81-9.46-12.65a40.5 40.5 0 0 1 -8.12-26.43c1.28-19.59 16.87-36.95 38.36-36.95a37.584 37.584 0 0 1 30.94 16.1 40.711 40.711 0 0 1 7.42 20.85z" fill="#d4e1f4"/><ellipse cx="183.98" cy="54.3" fill="#ff8564" rx="20.05" ry="20.06"/><path d="m86.64 115.65a20.065 20.065 0 1 1 -20.05 20.07 20.059 20.059 0 0 1 20.05-20.07z" fill="#ff8564"/><path d="m297.76 230.037a39.821 39.821 0 0 1 -8.11 26.43l-30.25 40.46-20.78-27.81-9.46-12.65a40.5 40.5 0 0 1 -8.12-26.43c1.28-19.59 16.87-36.95 38.36-36.95a37.584 37.584 0 0 1 30.94 16.1 40.711 40.711 0 0 1 7.42 20.85z" fill="#d4e1f4"/><path d="m258.65 211.75a20.065 20.065 0 1 1 -20.05 20.06 20.056 20.056 0 0 1 20.05-20.06z" fill="#ff8564"/><path d="m472.93 155.59a32.09 32.09 0 0 1 -6.52 21.25l-12.88 17.21-11.44 15.3-24.31-32.51a31.819 31.819 0 0 1 .19-39.01 30.144 30.144 0 0 1 24.12-11.94c17.28 0 29.82 13.96 30.84 29.7zm-15.73 1.09a16.12 16.12 0 1 0 -16.12 16.12 16.126 16.126 0 0 0 16.12-16.12z" fill="#d4e1f4"/><path d="m441.08 140.55a16.125 16.125 0 1 1 -16.12 16.13 16.126 16.126 0 0 1 16.12-16.13z" fill="#ff8564"/><g fill="#344d6b"><path d="m441.079 134.551a22.124 22.124 0 1 0 22.12 22.124 22.147 22.147 0 0 0 -22.12-22.124zm0 32.248a10.124 10.124 0 1 1 10.12-10.124 10.133 10.133 0 0 1 -10.12 10.125z"/><path d="m183.979 80.362a26.062 26.062 0 1 0 -26.051-26.062 26.085 26.085 0 0 0 26.051 26.062zm0-40.124a14.062 14.062 0 1 1 -14.051 14.062 14.072 14.072 0 0 1 14.051-14.062z"/><path d="m284.7 231.814a26.051 26.051 0 1 0 -26.051 26.062 26.086 26.086 0 0 0 26.051-26.062zm-26.051 14.062a14.062 14.062 0 1 1 14.051-14.062 14.072 14.072 0 0 1 -14.053 14.062z"/><path d="m86.643 161.778a26.062 26.062 0 1 0 -26.051-26.062 26.086 26.086 0 0 0 26.051 26.062zm0-40.124a14.062 14.062 0 1 1 -14.051 14.062 14.072 14.072 0 0 1 14.051-14.062z"/><path d="m478.92 155.2c-1.287-19.8-17.464-35.307-36.828-35.307a36.277 36.277 0 0 0 -24.22 9.338c-19.662-19.207-44.209-35.751-71.382-48.049-30.812-13.945-62.846-21.316-92.637-21.316a233.111 233.111 0 0 0 -24.59 1.526 43.276 43.276 0 0 0 .324-8.832c-1.552-23.866-21.032-42.56-44.348-42.56s-42.8 18.694-44.348 42.55a46.717 46.717 0 0 0 9.3 30.429l1.239 1.657a301.377 301.377 0 0 0 -31.67 20.644 43.843 43.843 0 0 0 -31.86-13.864c-23.317 0-42.8 18.7-44.347 42.55a46.726 46.726 0 0 0 9.3 30.43l7.153 9.566c-16.95 32.598-27.006 72.292-27.006 106.971a220.854 220.854 0 1 0 441.707 0c0-24.614-6.269-61.527-14.457-85.846l10.957-14.65a37.951 37.951 0 0 0 7.713-25.237zm-326.055-101.862c1-15.4 13.385-31.338 32.374-31.338s31.371 15.934 32.374 31.354a33.788 33.788 0 0 1 -6.937 22.44l-25.437 34.025-25.394-33.966a34.673 34.673 0 0 1 -6.98-22.515zm-97.335 81.416c1-15.4 13.384-31.338 32.373-31.338s31.372 15.934 32.374 31.355a33.776 33.776 0 0 1 -6.937 22.439l-25.44 34.025-25.391-33.966a34.672 34.672 0 0 1 -6.979-22.515zm12.522 49.97 15.048 20.124a6 6 0 0 0 9.611 0l30.236-40.448a45.438 45.438 0 0 0 3.853-49.4 288.227 288.227 0 0 1 31.888-20.66l21.747 29.088a6 6 0 0 0 9.611 0l30.238-40.447a48.053 48.053 0 0 0 5.359-9.065c2.493-.319 4.984-.617 7.44-.866l25.2 36.356a24 24 0 0 1 -.716 28.4l-7.118 9.243a16.329 16.329 0 0 1 -14.951 6.216l-8.074-1.032a29.255 29.255 0 0 0 -28.959 14.218 16.492 16.492 0 0 1 -16.31 8.017l-18.642-2.37a30.241 30.241 0 0 0 -29 13.121 26.905 26.905 0 0 0 -.454 29.47l12.315 19.465a25.084 25.084 0 0 0 21.206 11.616 24.777 24.777 0 0 0 11.736-2.945l12.68-6.8c6.212-3.331 16.3-3.364 23.571-.368a47.812 47.812 0 0 0 9.289 24.829l30.244 40.46a6 6 0 0 0 9.611 0l15.339-20.518 1.95 2.672c.826 1.152 1.711 2.286 2.632 3.37l15.4 18.138a7.833 7.833 0 0 1 -1.195 11.278l-23.337 17.945a37.534 37.534 0 0 0 -13.069 18.817l-7.779 25.252a15.73 15.73 0 0 1 -2.944 5.444l-7.569 9.112a44.325 44.325 0 0 0 -10.026 23.844 11.94 11.94 0 0 1 -7.253 9.787 5.95 5.95 0 0 1 -8.168-4.518l-7.13-42.819a33.244 33.244 0 0 0 -6.328-14.64l-26.121-34.281a30.245 30.245 0 0 1 -5.112-10.3l-8.621-31.129a32.833 32.833 0 0 0 -22.891-22.815l-1.874-.511a24.078 24.078 0 0 1 -10.136-5.685l-16.079-15.154a36.332 36.332 0 0 1 -6.523-8.227 35.8 35.8 0 0 0 -37.894-17.162 5.926 5.926 0 0 0 -.693.18l-16.111 5.241a234.676 234.676 0 0 1 14.873-39.543zm159.482 46.128c1-15.4 13.384-31.338 32.373-31.338s31.372 15.934 32.374 31.355a33.776 33.776 0 0 1 -6.937 22.439l-25.437 34.025-25.394-33.966a34.672 34.672 0 0 1 -6.979-22.515zm235.173 50.081c0 115.28-93.692 209.067-208.854 209.067s-208.853-93.787-208.853-209.067a206.779 206.779 0 0 1 4.808-42.951l22.833-7.427a23.8 23.8 0 0 1 24.859 11.475 48.361 48.361 0 0 0 8.674 10.94l16.08 15.149a36.147 36.147 0 0 0 15.206 8.527l1.874.51a20.781 20.781 0 0 1 14.481 14.444l8.621 31.134a42.191 42.191 0 0 0 7.132 14.373l26.121 34.282a21.2 21.2 0 0 1 4.036 9.338l7.13 42.819a17.92 17.92 0 0 0 24.645 13.608 23.931 23.931 0 0 0 14.545-19.618 32.374 32.374 0 0 1 7.321-17.413l7.569-9.112a27.657 27.657 0 0 0 5.182-9.58l7.776-25.252a25.6 25.6 0 0 1 8.912-12.833l23.347-17.946a19.833 19.833 0 0 0 3.029-28.56l-15.4-18.138c-.708-.834-1.389-1.706-2.052-2.631l-4.157-5.7 7.381-9.872a45.764 45.764 0 0 0 9.3-30.425c-1.551-23.866-21.031-42.56-44.348-42.56-21.07 0-39 15.267-43.409 35.811-9.967-2.938-21.9-2.3-30.17 2.132l-12.68 6.8a13.049 13.049 0 0 1 -17.13-4.512l-12.316-19.466a14.908 14.908 0 0 1 .251-16.329 18.3 18.3 0 0 1 17.549-7.941l18.642 2.369a28.467 28.467 0 0 0 28.169-13.841 17.259 17.259 0 0 1 17.092-8.4l8.073 1.032a28.375 28.375 0 0 0 25.981-10.8l7.118-9.243a35.957 35.957 0 0 0 1.071-42.558l-21.176-30.542c2.427-.1 4.737-.16 6.883-.16 28.1 0 58.42 7 87.689 20.249a251.384 251.384 0 0 1 26.687 14.1l-16.118 27.627a22.473 22.473 0 0 0 2.6 25.911 28.583 28.583 0 0 0 18.048 9.572l2.923.36a14.725 14.725 0 0 1 12.282 10.347 14.183 14.183 0 0 1 -4.165 14.7l-28.944 25.592a27.671 27.671 0 0 0 -9.334 20.719v6.791a23.98 23.98 0 0 0 11.011 20.225 13.243 13.243 0 0 1 6.02 9.858l.677 6.78a22.147 22.147 0 0 0 22.1 20.017h16.941a36.132 36.132 0 0 0 33.08-21.623l1.018-2.321a13.35 13.35 0 0 1 11.688-8.029l3.975-.18q.97-.043 1.936-.141l8.451-.851c.188 3.287.289 6.431.289 9.364zm-1.285-21.333-8.657.871c-.422.043-.846.073-1.274.093l-3.981.181a25.278 25.278 0 0 0 -22.132 15.2l-1.018 2.321a24.129 24.129 0 0 1 -22.09 14.443h-16.943a10.185 10.185 0 0 1 -10.16-9.209l-.678-6.781a25.175 25.175 0 0 0 -11.45-18.745 12.029 12.029 0 0 1 -5.521-10.145v-6.791a15.663 15.663 0 0 1 5.283-11.729l28.944-25.592a26.216 26.216 0 0 0 7.7-27.163 26.735 26.735 0 0 0 -22.3-18.781l-2.923-.36a16.6 16.6 0 0 1 -10.482-5.559 10.451 10.451 0 0 1 -1.237-12.018l15.839-27.149a224.384 224.384 0 0 1 31.933 25.913 38.185 38.185 0 0 0 -5.01 16.6 38.743 38.743 0 0 0 7.708 25.241l24.314 32.512a6 6 0 0 0 9.61 0l4.471-5.979a329.243 329.243 0 0 1 10.054 52.626zm.179-86.357-19.509 26.087-19.465-26.03a26.684 26.684 0 0 1 -5.388-17.324c.77-11.84 10.277-24.086 24.853-24.086s24.084 12.246 24.854 24.1a25.962 25.962 0 0 1 -5.346 17.254z"/></g></svg>